<mxfile host="app.diagrams.net" agent="Mozilla/5.0 (Windows NT 10.0; Win64; x64) AppleWebKit/537.36 (KHTML, like Gecko) Chrome/138.0.0.0 YaBrowser/25.8.0.0 Safari/537.36" version="28.2.3">
  <diagram name="Страница — 1" id="9NgLknsHggLHRvamXooU">
    <mxGraphModel dx="736" dy="447" grid="0" gridSize="10" guides="0" tooltips="1" connect="1" arrows="1" fold="1" page="0" pageScale="1" pageWidth="827" pageHeight="1169" math="0" shadow="0">
      <root>
        <mxCell id="0" />
        <mxCell id="1" parent="0" />
        <mxCell id="a1qmlphkTQdZICXiWigG-11" value="" style="rounded=0;whiteSpace=wrap;html=1;container=0;" vertex="1" parent="1">
          <mxGeometry x="200" y="91.25" width="530" height="908.75" as="geometry" />
        </mxCell>
        <mxCell id="a1qmlphkTQdZICXiWigG-18" style="rounded=0;orthogonalLoop=1;jettySize=auto;html=1;entryX=0;entryY=0.5;entryDx=0;entryDy=0;" edge="1" parent="1" target="a1qmlphkTQdZICXiWigG-17">
          <mxGeometry relative="1" as="geometry">
            <mxPoint x="160" y="200" as="sourcePoint" />
          </mxGeometry>
        </mxCell>
        <mxCell id="a1qmlphkTQdZICXiWigG-29" style="rounded=0;orthogonalLoop=1;jettySize=auto;html=1;entryX=0;entryY=0.5;entryDx=0;entryDy=0;jumpStyle=arc;" edge="1" parent="1" source="a1qmlphkTQdZICXiWigG-1" target="a1qmlphkTQdZICXiWigG-28">
          <mxGeometry relative="1" as="geometry" />
        </mxCell>
        <mxCell id="a1qmlphkTQdZICXiWigG-40" style="rounded=0;orthogonalLoop=1;jettySize=auto;html=1;entryX=0;entryY=0.5;entryDx=0;entryDy=0;" edge="1" parent="1" target="a1qmlphkTQdZICXiWigG-39">
          <mxGeometry relative="1" as="geometry">
            <mxPoint x="160" y="200" as="sourcePoint" />
          </mxGeometry>
        </mxCell>
        <mxCell id="a1qmlphkTQdZICXiWigG-1" value="Сотрудник&lt;div&gt;склада&lt;/div&gt;" style="shape=umlActor;verticalLabelPosition=bottom;verticalAlign=top;html=1;outlineConnect=0;container=0;" vertex="1" parent="1">
          <mxGeometry x="130" y="160" width="30" height="60" as="geometry" />
        </mxCell>
        <mxCell id="a1qmlphkTQdZICXiWigG-45" style="rounded=0;orthogonalLoop=1;jettySize=auto;html=1;entryX=1;entryY=0.5;entryDx=0;entryDy=0;" edge="1" parent="1" target="a1qmlphkTQdZICXiWigG-23">
          <mxGeometry relative="1" as="geometry">
            <mxPoint x="780" y="190" as="sourcePoint" />
          </mxGeometry>
        </mxCell>
        <mxCell id="a1qmlphkTQdZICXiWigG-46" style="rounded=0;orthogonalLoop=1;jettySize=auto;html=1;entryX=1;entryY=0.5;entryDx=0;entryDy=0;" edge="1" parent="1" target="a1qmlphkTQdZICXiWigG-30">
          <mxGeometry relative="1" as="geometry">
            <mxPoint x="780" y="190" as="sourcePoint" />
          </mxGeometry>
        </mxCell>
        <mxCell id="a1qmlphkTQdZICXiWigG-62" style="rounded=0;orthogonalLoop=1;jettySize=auto;html=1;entryX=1;entryY=0.5;entryDx=0;entryDy=0;" edge="1" parent="1" target="a1qmlphkTQdZICXiWigG-57">
          <mxGeometry relative="1" as="geometry">
            <mxPoint x="780" y="190" as="sourcePoint" />
          </mxGeometry>
        </mxCell>
        <mxCell id="a1qmlphkTQdZICXiWigG-4" value="Специалист" style="shape=umlActor;verticalLabelPosition=bottom;verticalAlign=top;html=1;outlineConnect=0;container=0;" vertex="1" parent="1">
          <mxGeometry x="785" y="160" width="30" height="60" as="geometry" />
        </mxCell>
        <mxCell id="a1qmlphkTQdZICXiWigG-52" style="edgeStyle=orthogonalEdgeStyle;rounded=0;orthogonalLoop=1;jettySize=auto;html=1;entryX=0;entryY=0.5;entryDx=0;entryDy=0;" edge="1" parent="1" source="a1qmlphkTQdZICXiWigG-6" target="a1qmlphkTQdZICXiWigG-51">
          <mxGeometry relative="1" as="geometry" />
        </mxCell>
        <mxCell id="a1qmlphkTQdZICXiWigG-6" value="Охрана" style="shape=umlActor;verticalLabelPosition=bottom;verticalAlign=top;html=1;outlineConnect=0;container=0;" vertex="1" parent="1">
          <mxGeometry x="130" y="350" width="30" height="60" as="geometry" />
        </mxCell>
        <mxCell id="a1qmlphkTQdZICXiWigG-64" style="rounded=0;orthogonalLoop=1;jettySize=auto;html=1;entryX=0;entryY=0.5;entryDx=0;entryDy=0;" edge="1" parent="1" target="a1qmlphkTQdZICXiWigG-63">
          <mxGeometry relative="1" as="geometry">
            <mxPoint x="160" y="920" as="sourcePoint" />
          </mxGeometry>
        </mxCell>
        <mxCell id="a1qmlphkTQdZICXiWigG-66" style="rounded=0;orthogonalLoop=1;jettySize=auto;html=1;entryX=0;entryY=0.5;entryDx=0;entryDy=0;exitX=1;exitY=0.3333333333333333;exitDx=0;exitDy=0;exitPerimeter=0;" edge="1" parent="1" source="a1qmlphkTQdZICXiWigG-7" target="a1qmlphkTQdZICXiWigG-65">
          <mxGeometry relative="1" as="geometry" />
        </mxCell>
        <mxCell id="a1qmlphkTQdZICXiWigG-7" value="Руководитель" style="shape=umlActor;verticalLabelPosition=bottom;verticalAlign=top;html=1;outlineConnect=0;container=0;" vertex="1" parent="1">
          <mxGeometry x="130" y="900" width="30" height="60" as="geometry" />
        </mxCell>
        <mxCell id="a1qmlphkTQdZICXiWigG-70" style="rounded=0;orthogonalLoop=1;jettySize=auto;html=1;entryX=1;entryY=0.5;entryDx=0;entryDy=0;" edge="1" parent="1" source="a1qmlphkTQdZICXiWigG-8" target="a1qmlphkTQdZICXiWigG-69">
          <mxGeometry relative="1" as="geometry" />
        </mxCell>
        <mxCell id="a1qmlphkTQdZICXiWigG-8" value="Гос.&lt;div&gt;контролирующие&lt;/div&gt;&lt;div&gt;органы&lt;/div&gt;" style="shape=umlActor;verticalLabelPosition=bottom;verticalAlign=top;html=1;outlineConnect=0;container=0;" vertex="1" parent="1">
          <mxGeometry x="785" y="900" width="30" height="60" as="geometry" />
        </mxCell>
        <mxCell id="a1qmlphkTQdZICXiWigG-68" style="edgeStyle=orthogonalEdgeStyle;rounded=0;orthogonalLoop=1;jettySize=auto;html=1;entryX=1;entryY=0.5;entryDx=0;entryDy=0;" edge="1" parent="1" source="a1qmlphkTQdZICXiWigG-10" target="a1qmlphkTQdZICXiWigG-67">
          <mxGeometry relative="1" as="geometry" />
        </mxCell>
        <mxCell id="a1qmlphkTQdZICXiWigG-10" value="Получатель" style="shape=umlActor;verticalLabelPosition=bottom;verticalAlign=top;html=1;outlineConnect=0;container=0;" vertex="1" parent="1">
          <mxGeometry x="785" y="750" width="30" height="60" as="geometry" />
        </mxCell>
        <mxCell id="a1qmlphkTQdZICXiWigG-5" value="Перевозчик" style="shape=umlActor;verticalLabelPosition=bottom;verticalAlign=top;html=1;outlineConnect=0;container=0;" vertex="1" parent="1">
          <mxGeometry x="130" y="630" width="30" height="60" as="geometry" />
        </mxCell>
        <mxCell id="a1qmlphkTQdZICXiWigG-37" style="edgeStyle=orthogonalEdgeStyle;rounded=0;orthogonalLoop=1;jettySize=auto;html=1;entryX=0;entryY=0.5;entryDx=0;entryDy=0;curved=1;" edge="1" parent="1" source="a1qmlphkTQdZICXiWigG-5" target="a1qmlphkTQdZICXiWigG-35">
          <mxGeometry relative="1" as="geometry" />
        </mxCell>
        <mxCell id="a1qmlphkTQdZICXiWigG-12" value="&lt;p style=&quot;line-height:normal&quot; class=&quot;MsoNormal&quot;&gt;Система для логистики лекарственных препаратов с особыми условиями хранения.&lt;/p&gt;" style="text;html=1;align=center;verticalAlign=middle;resizable=0;points=[];autosize=1;strokeColor=none;fillColor=none;container=0;" vertex="1" parent="1">
          <mxGeometry x="214" y="79" width="490" height="50" as="geometry" />
        </mxCell>
        <mxCell id="a1qmlphkTQdZICXiWigG-24" style="rounded=0;orthogonalLoop=1;jettySize=auto;html=1;exitX=1;exitY=0.5;exitDx=0;exitDy=0;entryX=0;entryY=0.5;entryDx=0;entryDy=0;dashed=1;dashPattern=8 8;" edge="1" parent="1" source="a1qmlphkTQdZICXiWigG-17" target="a1qmlphkTQdZICXiWigG-23">
          <mxGeometry relative="1" as="geometry" />
        </mxCell>
        <mxCell id="a1qmlphkTQdZICXiWigG-25" value="include" style="edgeLabel;html=1;align=center;verticalAlign=middle;resizable=0;points=[];container=0;" vertex="1" connectable="0" parent="a1qmlphkTQdZICXiWigG-24">
          <mxGeometry x="0.2436" y="-2" relative="1" as="geometry">
            <mxPoint x="-8" y="-14" as="offset" />
          </mxGeometry>
        </mxCell>
        <mxCell id="a1qmlphkTQdZICXiWigG-17" value="Регистрация&lt;div&gt;поступления&lt;/div&gt;&lt;div&gt;партии&lt;/div&gt;" style="ellipse;whiteSpace=wrap;html=1;container=0;" vertex="1" parent="1">
          <mxGeometry x="274" y="130" width="140" height="60" as="geometry" />
        </mxCell>
        <mxCell id="a1qmlphkTQdZICXiWigG-23" value="Верификация&lt;div&gt;данных&lt;/div&gt;&lt;div&gt;о партии&lt;/div&gt;" style="ellipse;whiteSpace=wrap;html=1;container=0;" vertex="1" parent="1">
          <mxGeometry x="500" y="130" width="140" height="60" as="geometry" />
        </mxCell>
        <mxCell id="a1qmlphkTQdZICXiWigG-31" style="edgeStyle=orthogonalEdgeStyle;rounded=0;orthogonalLoop=1;jettySize=auto;html=1;exitX=1;exitY=0.5;exitDx=0;exitDy=0;entryX=0;entryY=0.5;entryDx=0;entryDy=0;dashed=1;dashPattern=8 8;" edge="1" parent="1" source="a1qmlphkTQdZICXiWigG-28" target="a1qmlphkTQdZICXiWigG-30">
          <mxGeometry relative="1" as="geometry" />
        </mxCell>
        <mxCell id="a1qmlphkTQdZICXiWigG-32" value="&lt;span style=&quot;color: rgba(0, 0, 0, 0); font-family: monospace; font-size: 0px; text-align: start; background-color: rgb(236, 236, 236);&quot;&gt;%3CmxGraphModel%3E%3Croot%3E%3CmxCell%20id%3D%220%22%2F%3E%3CmxCell%20id%3D%221%22%20parent%3D%220%22%2F%3E%3CmxCell%20id%3D%222%22%20value%3D%22include%22%20style%3D%22edgeLabel%3Bhtml%3D1%3Balign%3Dcenter%3BverticalAlign%3Dmiddle%3Bresizable%3D0%3Bpoints%3D%5B%5D%3B%22%20vertex%3D%221%22%20connectable%3D%220%22%20parent%3D%221%22%3E%3CmxGeometry%20x%3D%22466.57142857142844%22%20y%3D%22148%22%20as%3D%22geometry%22%2F%3E%3C%2FmxCell%3E%3C%2Froot%3E%3C%2FmxGraphModel%3E&lt;/span&gt;" style="edgeLabel;html=1;align=center;verticalAlign=middle;resizable=0;points=[];container=0;" vertex="1" connectable="0" parent="a1qmlphkTQdZICXiWigG-31">
          <mxGeometry x="-0.0532" relative="1" as="geometry">
            <mxPoint as="offset" />
          </mxGeometry>
        </mxCell>
        <mxCell id="a1qmlphkTQdZICXiWigG-33" value="include" style="edgeLabel;html=1;align=center;verticalAlign=middle;resizable=0;points=[];container=0;" vertex="1" connectable="0" parent="a1qmlphkTQdZICXiWigG-31">
          <mxGeometry x="0.0797" y="-1" relative="1" as="geometry">
            <mxPoint y="-11" as="offset" />
          </mxGeometry>
        </mxCell>
        <mxCell id="a1qmlphkTQdZICXiWigG-28" value="Подготовка партии&lt;div&gt;к отгрузке&lt;/div&gt;" style="ellipse;whiteSpace=wrap;html=1;container=0;" vertex="1" parent="1">
          <mxGeometry x="274" y="240" width="140" height="60" as="geometry" />
        </mxCell>
        <mxCell id="a1qmlphkTQdZICXiWigG-30" value="Проверка условий упаковки" style="ellipse;whiteSpace=wrap;html=1;container=0;" vertex="1" parent="1">
          <mxGeometry x="500" y="240" width="140" height="60" as="geometry" />
        </mxCell>
        <mxCell id="a1qmlphkTQdZICXiWigG-49" style="edgeStyle=orthogonalEdgeStyle;rounded=0;orthogonalLoop=1;jettySize=auto;html=1;entryX=0;entryY=0.5;entryDx=0;entryDy=0;dashed=1;dashPattern=8 8;" edge="1" parent="1" source="a1qmlphkTQdZICXiWigG-35" target="a1qmlphkTQdZICXiWigG-47">
          <mxGeometry relative="1" as="geometry" />
        </mxCell>
        <mxCell id="a1qmlphkTQdZICXiWigG-50" value="include" style="edgeLabel;html=1;align=center;verticalAlign=middle;resizable=0;points=[];container=0;" vertex="1" connectable="0" parent="a1qmlphkTQdZICXiWigG-49">
          <mxGeometry x="-0.0152" y="-1" relative="1" as="geometry">
            <mxPoint as="offset" />
          </mxGeometry>
        </mxCell>
        <mxCell id="a1qmlphkTQdZICXiWigG-41" style="edgeStyle=orthogonalEdgeStyle;rounded=0;orthogonalLoop=1;jettySize=auto;html=1;exitX=0.5;exitY=1;exitDx=0;exitDy=0;dashed=1;dashPattern=8 8;" edge="1" parent="1" source="a1qmlphkTQdZICXiWigG-39" target="a1qmlphkTQdZICXiWigG-35">
          <mxGeometry relative="1" as="geometry" />
        </mxCell>
        <mxCell id="a1qmlphkTQdZICXiWigG-42" value="extend" style="edgeLabel;html=1;align=center;verticalAlign=middle;resizable=0;points=[];container=0;" vertex="1" connectable="0" parent="a1qmlphkTQdZICXiWigG-41">
          <mxGeometry x="-0.0536" y="1" relative="1" as="geometry">
            <mxPoint as="offset" />
          </mxGeometry>
        </mxCell>
        <mxCell id="a1qmlphkTQdZICXiWigG-53" style="edgeStyle=orthogonalEdgeStyle;rounded=0;orthogonalLoop=1;jettySize=auto;html=1;entryX=0.5;entryY=1;entryDx=0;entryDy=0;dashed=1;dashPattern=8 8;" edge="1" parent="1" source="a1qmlphkTQdZICXiWigG-39" target="a1qmlphkTQdZICXiWigG-51">
          <mxGeometry relative="1" as="geometry" />
        </mxCell>
        <mxCell id="a1qmlphkTQdZICXiWigG-54" value="extend" style="edgeLabel;html=1;align=center;verticalAlign=middle;resizable=0;points=[];container=0;" vertex="1" connectable="0" parent="a1qmlphkTQdZICXiWigG-53">
          <mxGeometry x="-0.1" y="-2" relative="1" as="geometry">
            <mxPoint y="1" as="offset" />
          </mxGeometry>
        </mxCell>
        <mxCell id="a1qmlphkTQdZICXiWigG-39" value="Передача&lt;div&gt;перевозчику&lt;/div&gt;" style="ellipse;whiteSpace=wrap;html=1;container=0;" vertex="1" parent="1">
          <mxGeometry x="274" y="470" width="140" height="60" as="geometry" />
        </mxCell>
        <mxCell id="a1qmlphkTQdZICXiWigG-35" value="Транспортировка&lt;div&gt;партии&lt;/div&gt;" style="ellipse;whiteSpace=wrap;html=1;container=0;" vertex="1" parent="1">
          <mxGeometry x="274" y="630" width="140" height="60" as="geometry" />
        </mxCell>
        <mxCell id="a1qmlphkTQdZICXiWigG-58" style="edgeStyle=orthogonalEdgeStyle;rounded=0;orthogonalLoop=1;jettySize=auto;html=1;exitX=0.5;exitY=0;exitDx=0;exitDy=0;entryX=0.5;entryY=1;entryDx=0;entryDy=0;dashed=1;dashPattern=8 8;" edge="1" parent="1" source="a1qmlphkTQdZICXiWigG-47" target="a1qmlphkTQdZICXiWigG-57">
          <mxGeometry relative="1" as="geometry" />
        </mxCell>
        <mxCell id="a1qmlphkTQdZICXiWigG-60" value="extend" style="edgeLabel;html=1;align=center;verticalAlign=middle;resizable=0;points=[];container=0;" vertex="1" connectable="0" parent="a1qmlphkTQdZICXiWigG-58">
          <mxGeometry x="0.055" y="3" relative="1" as="geometry">
            <mxPoint as="offset" />
          </mxGeometry>
        </mxCell>
        <mxCell id="a1qmlphkTQdZICXiWigG-47" value="Отслеживание&lt;div&gt;условий в пути&lt;/div&gt;" style="ellipse;whiteSpace=wrap;html=1;container=0;" vertex="1" parent="1">
          <mxGeometry x="500" y="630" width="140" height="60" as="geometry" />
        </mxCell>
        <mxCell id="a1qmlphkTQdZICXiWigG-56" style="rounded=0;orthogonalLoop=1;jettySize=auto;html=1;exitX=0;exitY=0;exitDx=0;exitDy=0;entryX=1;entryY=0.5;entryDx=0;entryDy=0;" edge="1" parent="1" source="a1qmlphkTQdZICXiWigG-16" target="a1qmlphkTQdZICXiWigG-55">
          <mxGeometry relative="1" as="geometry" />
        </mxCell>
        <mxCell id="a1qmlphkTQdZICXiWigG-16" value="Система&amp;nbsp;&lt;div&gt;мониторинга&lt;/div&gt;" style="rounded=1;whiteSpace=wrap;html=1;container=0;" vertex="1" parent="1">
          <mxGeometry x="770" y="640" width="80" height="40" as="geometry" />
        </mxCell>
        <mxCell id="a1qmlphkTQdZICXiWigG-48" style="rounded=0;orthogonalLoop=1;jettySize=auto;html=1;" edge="1" parent="1" target="a1qmlphkTQdZICXiWigG-47">
          <mxGeometry relative="1" as="geometry">
            <mxPoint x="770" y="660" as="sourcePoint" />
          </mxGeometry>
        </mxCell>
        <mxCell id="a1qmlphkTQdZICXiWigG-51" value="Опломбирование&amp;nbsp;" style="ellipse;whiteSpace=wrap;html=1;container=0;" vertex="1" parent="1">
          <mxGeometry x="274" y="350" width="140" height="60" as="geometry" />
        </mxCell>
        <mxCell id="a1qmlphkTQdZICXiWigG-59" style="edgeStyle=orthogonalEdgeStyle;rounded=0;orthogonalLoop=1;jettySize=auto;html=1;exitX=0.5;exitY=1;exitDx=0;exitDy=0;entryX=0.5;entryY=0;entryDx=0;entryDy=0;dashed=1;dashPattern=8 8;endArrow=none;endFill=0;startArrow=classic;startFill=1;" edge="1" parent="1" source="a1qmlphkTQdZICXiWigG-55" target="a1qmlphkTQdZICXiWigG-57">
          <mxGeometry relative="1" as="geometry" />
        </mxCell>
        <mxCell id="a1qmlphkTQdZICXiWigG-61" value="extend" style="edgeLabel;html=1;align=center;verticalAlign=middle;resizable=0;points=[];container=0;" vertex="1" connectable="0" parent="a1qmlphkTQdZICXiWigG-59">
          <mxGeometry x="0.1167" y="-4" relative="1" as="geometry">
            <mxPoint as="offset" />
          </mxGeometry>
        </mxCell>
        <mxCell id="a1qmlphkTQdZICXiWigG-55" value="Мониторинг условий&lt;div&gt;хранения&lt;/div&gt;" style="ellipse;whiteSpace=wrap;html=1;container=0;" vertex="1" parent="1">
          <mxGeometry x="500" y="350" width="140" height="60" as="geometry" />
        </mxCell>
        <mxCell id="a1qmlphkTQdZICXiWigG-57" value="Уведомление&amp;nbsp;&lt;div&gt;о нарушении&lt;/div&gt;" style="ellipse;whiteSpace=wrap;html=1;container=0;" vertex="1" parent="1">
          <mxGeometry x="500" y="470" width="140" height="60" as="geometry" />
        </mxCell>
        <mxCell id="a1qmlphkTQdZICXiWigG-63" value="Формирование&lt;div&gt;документов&lt;/div&gt;" style="ellipse;whiteSpace=wrap;html=1;container=0;" vertex="1" parent="1">
          <mxGeometry x="274" y="750" width="140" height="60" as="geometry" />
        </mxCell>
        <mxCell id="a1qmlphkTQdZICXiWigG-65" value="Управление пользователями" style="ellipse;whiteSpace=wrap;html=1;container=0;" vertex="1" parent="1">
          <mxGeometry x="274" y="840" width="140" height="60" as="geometry" />
        </mxCell>
        <mxCell id="a1qmlphkTQdZICXiWigG-67" value="Приёмка получателем" style="ellipse;whiteSpace=wrap;html=1;container=0;" vertex="1" parent="1">
          <mxGeometry x="500" y="750" width="140" height="60" as="geometry" />
        </mxCell>
        <mxCell id="a1qmlphkTQdZICXiWigG-69" value="Проверка и контроль&lt;div&gt;препоратов&amp;nbsp;&lt;/div&gt;" style="ellipse;whiteSpace=wrap;html=1;container=0;" vertex="1" parent="1">
          <mxGeometry x="500" y="840" width="140" height="60" as="geometry" />
        </mxCell>
      </root>
    </mxGraphModel>
  </diagram>
</mxfile>
